<?xml version="1.0" encoding="UTF-8" standalone="no"?>
<!-- Created with Inkscape (http://www.inkscape.org/) -->

<svg
   xmlns:dc="http://purl.org/dc/elements/1.1/"
   xmlns:cc="http://creativecommons.org/ns#"
   xmlns:rdf="http://www.w3.org/1999/02/22-rdf-syntax-ns#"
   xmlns:svg="http://www.w3.org/2000/svg"
   xmlns="http://www.w3.org/2000/svg"
   xmlns:sodipodi="http://sodipodi.sourceforge.net/DTD/sodipodi-0.dtd"
   xmlns:inkscape="http://www.inkscape.org/namespaces/inkscape"
   width="620"
   height="340"
   viewBox="0 0 164.04167 89.958333"
   version="1.1"
   id="svg8"
   inkscape:version="0.92.5 (2060ec1f9f, 2020-04-08)"
   sodipodi:docname="umapalata.svg">
  <defs
     id="defs2" />
  <sodipodi:namedview
     id="base"
     pagecolor="#ffffff"
     bordercolor="#666666"
     borderopacity="1.0"
     inkscape:pageopacity="0.0"
     inkscape:pageshadow="2"
     inkscape:zoom="1.979899"
     inkscape:cx="176.46354"
     inkscape:cy="194.34784"
     inkscape:document-units="px"
     inkscape:current-layer="g962"
     showgrid="false"
     units="px"
     inkscape:window-width="1920"
     inkscape:window-height="960"
     inkscape:window-x="1920"
     inkscape:window-y="27"
     inkscape:window-maximized="1"
     showguides="false"
     inkscape:guide-bbox="true">
    <sodipodi:guide
       position="231.72267,77.775433"
       orientation="1,0"
       id="guide927"
       inkscape:locked="false" />
    <sodipodi:guide
       position="202.85757,98.087917"
       orientation="0,1"
       id="guide929"
       inkscape:locked="false" />
  </sodipodi:namedview>
  <metadata
     id="metadata5">
    <rdf:RDF>
      <cc:Work
         rdf:about="">
        <dc:format>image/svg+xml</dc:format>
        <dc:type
           rdf:resource="http://purl.org/dc/dcmitype/StillImage" />
        <dc:title />
      </cc:Work>
    </rdf:RDF>
  </metadata>
  <g
     inkscape:label="Layer 1"
     inkscape:groupmode="layer"
     id="layer1"
     transform="translate(0,-207.04165)">
    <g
       transform="matrix(0.26458333,0,0,0.26458333,0,138.24998)"
       style="font-style:normal;font-weight:normal;font-size:40px;line-height:1.25;font-family:sans-serif;letter-spacing:0px;word-spacing:0px;fill:#000000;fill-opacity:1;stroke:none"
       id="flowRoot990" />
    <g
       transform="matrix(0.26458333,0,0,0.26458333,0,138.24998)"
       style="font-style:normal;font-weight:normal;font-size:40px;line-height:1.25;font-family:sans-serif;letter-spacing:0px;word-spacing:0px;fill:#000000;fill-opacity:1;stroke:none"
       id="flowRoot1000" />
    <g
       transform="matrix(0.26458333,0,0,0.26458333,0,138.24998)"
       style="font-style:normal;font-weight:normal;font-size:40px;line-height:1.25;font-family:sans-serif;letter-spacing:0px;word-spacing:0px;fill:#000000;fill-opacity:1;stroke:none"
       id="flowRoot1010" />
    <g
       style="font-style:normal;font-weight:normal;font-size:10.58333302px;line-height:1.25;font-family:sans-serif;letter-spacing:0px;word-spacing:0px;fill:#000000;fill-opacity:1;stroke:none;stroke-width:0.26458332"
       id="text1050" />
    <g
       aria-label=" "
       style="font-style:normal;font-weight:normal;font-size:10.58333302px;line-height:1.25;font-family:sans-serif;letter-spacing:0px;word-spacing:0px;fill:#000000;fill-opacity:1;stroke:none;stroke-width:0.26458332"
       id="text1113" />
    <g
       transform="matrix(0.26458333,0,0,0.26458333,0,138.24998)"
       style="font-style:normal;font-weight:normal;font-size:40px;line-height:1.25;font-family:sans-serif;letter-spacing:0px;word-spacing:0px;fill:#000000;fill-opacity:1;stroke:none"
       id="flowRoot1117" />
    <g
       id="g1010"
       transform="translate(-66.729687,40.928772)">
      <g
         id="g989"
         transform="translate(0,138.24998)">
        <path
           style="fill:#ffffff;fill-opacity:1;stroke:#676767;stroke-width:0.42333335;stroke-linecap:round;stroke-linejoin:round;stroke-miterlimit:4;stroke-dasharray:none;stroke-dashoffset:0;stroke-opacity:0.5245098;paint-order:normal"
           d="M 77.062729,33.652042 H 230.01749 V 112.03209 H 77.062729 Z"
           id="rect983"
           inkscape:connector-curvature="0" />
      </g>
      <g
         aria-label=" "
         style="font-style:normal;font-weight:normal;font-size:10.58333302px;line-height:1.25;font-family:sans-serif;letter-spacing:0px;word-spacing:0px;fill:#000000;fill-opacity:1;stroke:none;stroke-width:0.26458332"
         id="text1127" />
      <g
         style="stroke-width:0.60441065"
         transform="matrix(1.6545043,0,0,1.6545043,7.5380794,-68.046257)"
         id="g962">
        <g
           aria-label="МАПА"
           transform="matrix(0.26000756,0,0,0.26458333,62.793334,38.42183)"
           style="font-style:normal;font-weight:normal;font-size:96px;line-height:1.25;font-family:sans-serif;letter-spacing:0px;word-spacing:0px;fill:#4d4d4d;fill-opacity:1;stroke:none;stroke-width:0.60970587"
           id="flowRoot1103">
          <path
             d="m 41.837234,491.28912 1.344,-77.76 h 18.432 l 8.544,45.216 9.216,-45.216 h 17.76 l 1.344,77.76 h -12.192 l -1.44,-51.744 -9.024,51.744 h -10.848 l -9.6,-52.128 -1.152,52.128 z"
             style="font-style:normal;font-variant:normal;font-weight:bold;font-stretch:normal;font-family:Oswald;-inkscape-font-specification:'Oswald Bold';fill:#4d4d4d;stroke-width:0.60970587"
             id="path1044"
             inkscape:connector-curvature="0" />
          <path
             d="m 105.9651,491.28912 14.688,-77.76 h 19.584 l 14.496,77.76 h -15.84 l -2.592,-16.416 h -11.424 l -2.688,16.416 z m 20.448,-26.688 h 8.256 l -4.128,-30.336 z"
             style="font-style:normal;font-variant:normal;font-weight:bold;font-stretch:normal;font-family:Oswald;-inkscape-font-specification:'Oswald Bold';fill:#4d4d4d;stroke-width:0.60970587"
             id="path1046"
             inkscape:connector-curvature="0" />
          <path
             d="m 162.60497,491.28912 v -77.76 h 46.56 v 77.76 h -16.896 v -65.472 h -12.768 v 65.472 z"
             style="font-style:normal;font-variant:normal;font-weight:bold;font-stretch:normal;font-family:Oswald;-inkscape-font-specification:'Oswald Bold';fill:#4d4d4d;stroke-width:0.60970587"
             id="path1048"
             inkscape:connector-curvature="0" />
          <path
             d="m 216.94093,491.28912 14.688,-77.76 h 19.584 l 14.496,77.76 h -15.84 l -2.592,-16.416 h -11.424 l -2.688,16.416 z m 20.448,-26.688 h 8.256 l -4.128,-30.336 z"
             style="font-style:normal;font-variant:normal;font-weight:bold;font-stretch:normal;font-family:Oswald;-inkscape-font-specification:'Oswald Bold';fill:#4d4d4d;stroke-width:0.60970587"
             id="path1050"
             inkscape:connector-curvature="0" />
        </g>
        <g
           aria-label="ЛАТА"
           transform="matrix(0.28431556,0,0,0.26458333,62.339264,60.178744)"
           style="font-style:normal;font-weight:normal;font-size:96px;line-height:1.25;font-family:sans-serif;letter-spacing:0px;word-spacing:0px;fill:#4d4d4d;fill-opacity:1;stroke:none;stroke-width:0.58305973"
           id="flowRoot1103-3">
          <path
             d="m 37.037234,491.28912 v -12.096 q 3.264,0 5.28,-0.384 2.016,-0.48 3.168,-2.112 1.152,-1.632 1.824,-4.992 0.672,-3.36 1.056,-9.024 0.48,-5.664 1.152,-14.4 l 2.496,-34.752 h 41.184 v 77.76 h -17.088 v -64.608 h -8.544 l -1.536,24.864 q -0.672,9.6 -1.344,16.608 -0.672,6.912 -2.208,11.616 -1.44,4.704 -4.416,7.392 -2.88,2.592 -7.968,3.552 -5.088,0.96 -13.056,0.576 z"
             style="font-style:normal;font-variant:normal;font-weight:bold;font-stretch:normal;font-family:Oswald;-inkscape-font-specification:'Oswald Bold';fill:#4d4d4d;stroke-width:0.58305973"
             id="path1053"
             inkscape:connector-curvature="0" />
          <path
             d="m 101.35706,491.28912 14.688,-77.76 h 19.584 l 14.496,77.76 h -15.84 l -2.592,-16.416 h -11.424 l -2.688,16.416 z m 20.448,-26.688 h 8.256 l -4.128,-30.336 z"
             style="font-style:normal;font-variant:normal;font-weight:bold;font-stretch:normal;font-family:Oswald;-inkscape-font-specification:'Oswald Bold';fill:#4d4d4d;stroke-width:0.58305973"
             id="path1055"
             inkscape:connector-curvature="0" />
          <path
             d="m 163.85284,491.28912 v -64.992 h -11.712 v -12.768 h 40.608 v 12.768 h -11.616 v 64.992 z"
             style="font-style:normal;font-variant:normal;font-weight:bold;font-stretch:normal;font-family:Oswald;-inkscape-font-specification:'Oswald Bold';fill:#4d4d4d;stroke-width:0.58305973"
             id="path1057"
             inkscape:connector-curvature="0" />
          <path
             d="m 195.82081,491.28912 14.688,-77.76 h 19.584 l 14.496,77.76 h -15.84 l -2.592,-16.416 h -11.424 l -2.688,16.416 z m 20.448,-26.688 h 8.256 l -4.128,-30.336 z"
             style="font-style:normal;font-variant:normal;font-weight:bold;font-stretch:normal;font-family:Oswald;-inkscape-font-specification:'Oswald Bold';fill:#4d4d4d;stroke-width:0.58305973"
             id="path1059"
             inkscape:connector-curvature="0" />
        </g>
        <g
           aria-label="У"
           transform="matrix(0.73432606,-0.25811946,0.16013806,0.45557801,-58.476613,-24.618591)"
           style="font-style:normal;font-weight:normal;font-size:96px;line-height:1.25;font-family:sans-serif;letter-spacing:0px;word-spacing:0px;fill:#274472;fill-opacity:1;stroke:none;stroke-width:0.26083833"
           id="flowRoot1103-3-3">
          <path
             d="m 41.453234,505.78512 v -10.656 q 4.32,0.192 7.296,-0.288 2.976,-0.48 4.704,-1.92 1.824,-1.344 2.304,-3.744 0.48,-2.4 -0.288,-5.952 l -17.088,-69.696 h 14.784 l 6.624,32.256 3.36,21.6 2.592,-21.696 5.664,-32.16 h 14.88 l -15.648,71.808 q -1.056,5.184 -2.4,8.736 -1.344,3.648 -3.36,6.048 -2.016,2.4 -5.088,3.648 -3.072,1.344 -7.584,1.728 -4.512,0.48 -10.752,0.288 z"
             style="font-style:normal;font-variant:normal;font-weight:600;font-stretch:normal;font-family:Oswald;-inkscape-font-specification:'Oswald Semi-Bold';fill:#274472;stroke-width:0.26083833;fill-opacity:1"
             id="path1062"
             inkscape:connector-curvature="0" />
        </g>
      </g>
    </g>
  </g>
</svg>
